<?xml version="1.0" encoding="UTF-8" standalone="no"?>
<!-- Created with Inkscape (http://www.inkscape.org/) -->

<svg
   width="128"
   height="128"
   viewBox="0 0 128 128"
   version="1.1"
   id="svg157"
   xml:space="preserve"
   inkscape:version="1.2.1 (9c6d41e410, 2022-07-14)"
   sodipodi:docname="icon.svg"
   xmlns:inkscape="http://www.inkscape.org/namespaces/inkscape"
   xmlns:sodipodi="http://sodipodi.sourceforge.net/DTD/sodipodi-0.dtd"
   xmlns="http://www.w3.org/2000/svg"
   xmlns:svg="http://www.w3.org/2000/svg"><sodipodi:namedview
     id="namedview159"
     pagecolor="#505050"
     bordercolor="#eeeeee"
     borderopacity="1"
     inkscape:showpageshadow="0"
     inkscape:pageopacity="0"
     inkscape:pagecheckerboard="0"
     inkscape:deskcolor="#505050"
     inkscape:document-units="px"
     showgrid="false"
     inkscape:lockguides="true"
     inkscape:zoom="2.56"
     inkscape:cx="20.117188"
     inkscape:cy="24.21875"
     inkscape:window-width="1920"
     inkscape:window-height="1015"
     inkscape:window-x="0"
     inkscape:window-y="0"
     inkscape:window-maximized="1"
     inkscape:current-layer="layer1" /><defs
     id="defs154" /><g
     inkscape:label="Layer 1"
     inkscape:groupmode="layer"
     id="layer1"><rect
       style="fill:#6d28d9;fill-opacity:1;stroke:#ffffff;stroke-width:0;stroke-dasharray:none;stroke-opacity:1"
       id="rect5486"
       width="128"
       height="128"
       x="0"
       y="0"
       ry="15" /><g
       style="fill:none;stroke:#ffffff;stroke-width:2;stroke-opacity:1"
       id="g3617"
       transform="translate(-147.54688,-13.171854)"><g
         style="fill:none;stroke:#ffffff;stroke-width:2;stroke-opacity:1"
         id="g292"
         transform="matrix(5.6000173,0,0,5.6000173,144.34685,9.9716464)"
         inkscape:label="g292"><path
           stroke-linecap="round"
           stroke-linejoin="round"
           d="M 3,3 H 5 L 5.4,5 M 7,13 H 17 L 21,5 H 5.4 M 7,13 5.4,5 M 7,13 4.707,15.293 C 4.077,15.923 4.523,17 5.414,17 H 17 m 0,0 a 2,2 0 1 0 0,4 2,2 0 0 0 0,-4 z m -8,2 a 2,2 0 1 1 -4,0 2,2 0 0 1 4,0 z"
           id="path283"
           style="display:inline;stroke-width:1.33928158;stroke-dasharray:none;stroke:#ffffff;stroke-opacity:1" /></g><path
         stroke-linecap="round"
         stroke-linejoin="round"
         d="m 197.53657,63.072809 10.2916,10.291607 25.72902,-25.729014"
         id="path3608"
         style="stroke-width:7.5;stroke-dasharray:none;stroke:#ffffff;stroke-opacity:1" /></g></g></svg>
